# xmcd
#
# Track frame offsets:
#	150
#	20117
#	40357
#	66335
#	90185
#	103765
#	134237
#	150845
#	176825
#	188950
#	217297
#	231910
#	251117
#
# Disc length: 3619
#
# Revision: 3
# Processed by: cddbd v1.5.1PL0 Copyright (c) Steve Scherf et al.
# Submitted via: CDex 1.50beta10
# Normalized: r1:TRMNUM;r2:TDELIM( - )
#
DISCID=c30e210d
DTITLE=Various Artist - Original Jazz Classics - The Prestige Sampler
DYEAR=1988
DGENRE=Jazz
TTITLE0=Miles Davis Quintet - Airegin
TTITLE1=Modern Jazz Quartet - All of You
TTITLE2=Eric Dolphy Quintet - On Green Dolphin Street
TTITLE3=Thelonious Monk Trio - Work
TTITLE4=King Pleasure - Parker's Mood
TTITLE5=Sonny Rollins - St. Thomas
TTITLE6=Red Garland Trio - Hey Now
TTITLE7=Mile Davis, Sonny Rollins, Charlie Parker - Compulsion
TTITLE8=Annie Ross - Twisted
TTITLE9=John Coltrane - Straight Street
TTITLE10=Kenny Burrell and John Coltrane - Why Was I Born?
TTITLE11=Gene Ammons - My Romance
TTITLE12=Coleman Hawkins - Stealin' the Bean
EXTD=YEAR: 1988
EXTT0=
EXTT1=
EXTT2=
EXTT3=
EXTT4=
EXTT5=
EXTT6=
EXTT7=
EXTT8=
EXTT9=
EXTT10=
EXTT11=
EXTT12=
PLAYORDER=
